<svg width="45" height="45" viewBox="0 0 45 45" fill="none" xmlns="http://www.w3.org/2000/svg">
<path d="M3.75 37.5H7.5M7.5 37.5H26.25M7.5 37.5V11.6254C7.5 9.52517 7.5 8.47429 7.90873 7.67212C8.26825 6.96651 8.84151 6.39325 9.54712 6.03373C10.3493 5.625 11.4002 5.625 13.5004 5.625H20.2504C22.3506 5.625 23.3992 5.625 24.2014 6.03373C24.907 6.39325 25.4821 6.96651 25.8417 7.67212C26.25 8.4735 26.25 9.52311 26.25 11.6192V22.5M26.25 37.5H37.5M26.25 37.5V22.5M37.5 37.5H41.25M37.5 37.5V22.5C37.5 20.7527 37.4998 19.8795 37.2144 19.1904C36.8338 18.2715 36.1044 17.5411 35.1855 17.1605C34.4964 16.875 33.6218 16.875 31.8745 16.875C30.1272 16.875 29.2536 16.875 28.5645 17.1605C27.6456 17.5411 26.9161 18.2715 26.5355 19.1904C26.25 19.8795 26.25 20.7527 26.25 22.5M13.125 18.75H20.625M13.125 13.125H20.625" stroke="#2D3142" stroke-width="3" stroke-linecap="round" stroke-linejoin="round"/>
</svg>
